<?xml version="1.0" encoding="utf-8"?>
<!-- Generator: Adobe Illustrator 22.1.0, SVG Export Plug-In . SVG Version: 6.00 Build 0)  -->
<svg version="1.1" id="Layer_1" xmlns="http://www.w3.org/2000/svg" xmlns:xlink="http://www.w3.org/1999/xlink" x="0px" y="0px"
	 viewBox="0 0 1000 500" style="enable-background:new 0 0 1000 500;" xml:space="preserve">
<style type="text/css">
	.st0{font-family:'Helvetica-Bold';}
	.st1{font-size:32px;}
	.st2{fill:#4D4D4D;}
	.st3{font-family:'Helvetica';}
	.st4{font-size:22px;}
	.st5{font-size:30px;}
	.st6{fill:none;stroke:#0071BC;stroke-width:2;stroke-miterlimit:10;}
	.st7{fill:#666666;}
	.st8{font-size:20px;}
</style>
<text transform="matrix(1 0 0 1 39.6665 59.8032)"><tspan x="0" y="0" class="st0 st1">Cost &amp; Revenue Breakdown</tspan><tspan x="0" y="26.4" class="st2 st3 st4">by tier, per customer</tspan></text>
<g>
	<g>
		<text transform="matrix(1 0 0 1 733.7339 148.29)"><tspan x="0" y="0" class="st0 st5">Premium</tspan><tspan x="39.2" y="60" class="st3 st5">$25</tspan><tspan x="39.2" y="162" class="st3 st5">$35</tspan><tspan x="26.7" y="270" class="st3 st5">$2.00</tspan></text>
		<text transform="matrix(1 0 0 1 428.5972 148.29)"><tspan x="0" y="0" class="st0 st5">Standard</tspan><tspan x="40" y="60" class="st3 st5">$15</tspan><tspan x="40" y="162" class="st3 st5">$20</tspan><tspan x="27.5" y="270" class="st3 st5">$1.67</tspan></text>
	</g>
	<line class="st6" x1="44" y1="162" x2="967" y2="162"/>
	<text transform="matrix(1 0 0 1 59.3252 208.8462)"><tspan x="0" y="0" class="st3 st5">Price</tspan><tspan x="0" y="20" class="st7 st3 st8">monthl</tspan><tspan x="60" y="20" class="st7 st3 st8">y</tspan><tspan x="0" y="102" class="st3 st5">Cable Rent</tspan><tspan x="0" y="122" class="st7 st3 st8">annuall</tspan><tspan x="64.5" y="122" class="st7 st3 st8">y</tspan><tspan x="0" y="210" class="st3 st5">Cust. Support</tspan><tspan x="0" y="230" class="st7 st3 st8">monthly</tspan></text>
</g>
</svg>
