<?xml version="1.0" encoding="utf-8"?>
<!-- Generator: Adobe Illustrator 22.1.0, SVG Export Plug-In . SVG Version: 6.00 Build 0)  -->
<svg version="1.1" id="Layer_1" xmlns="http://www.w3.org/2000/svg" xmlns:xlink="http://www.w3.org/1999/xlink" x="0px" y="0px"
	 viewBox="0 0 80 80" style="enable-background:new 0 0 80 80;" xml:space="preserve">
<style type="text/css">
	.st0{fill:#FFFFFF;}
</style>
<rect x="-3.2" y="-2.3" class="st0" width="86" height="86"/>
<path d="M23.5,15c-1.3,0-2.4,1.1-2.4,2.4v7.3h-0.8c-1.8,0-3.2,1.5-3.2,3.2v0.8h0.2c0.4,1.4,1.6,2.4,3.1,2.4H21v2.4h-0.8
	c-1.8,0-3.2,1.5-3.2,3.2v0.8h0.2c0.4,1.4,1.6,2.4,3.1,2.4H21v2.4h-0.8c-1.8,0-3.2,1.5-3.2,3.2v0.8h0.2c0.4,1.4,1.6,2.4,3.1,2.4H21
	v2.4h-0.8c-1.8,0-3.2,1.5-3.2,3.2v0.8h0.2c0.4,1.4,1.6,2.4,3.1,2.4H21v4.8c0,1.3,1.1,2.4,2.4,2.4h37.1c1.3,0,2.4-1.1,2.4-2.4V17.4
	c0-1.3-1.1-2.4-2.4-2.4H23.5z M23.5,16.6h5.6v46.8h-5.6c-0.5,0-0.8-0.4-0.8-0.8v-5.5c0-0.1,0-0.2,0-0.3v-1.5c0-0.4-0.3-0.8-0.8-0.8
	c-0.4,0-0.8,0.3-0.8,0.8c0,0,0,0,0,0v0.8h-0.8c-0.9,0-1.6-0.7-1.6-1.6s0.7-1.6,1.6-1.6h3.2c0,0.9,0.7,1.6,1.6,1.6
	c0.9,0,1.6-0.7,1.6-1.6c0-0.9-0.7-1.6-1.6-1.6c0,0,0,0-0.1,0h-2.4v-3.1c0-0.1,0-0.2,0-0.3v-1.5c0-0.4-0.4-0.8-0.8-0.8c0,0,0,0,0,0
	c-0.4,0-0.8,0.4-0.8,0.8v0.8h-0.8c-0.9,0-1.6-0.7-1.6-1.6s0.7-1.6,1.6-1.6h3.2c0,0.9,0.7,1.6,1.6,1.6c0.9,0,1.6-0.7,1.6-1.6
	c0-0.9-0.7-1.6-1.6-1.6c0,0,0,0-0.1,0h-2.4v-3.1c0-0.1,0-0.2,0-0.3v-1.5c0-0.4-0.4-0.8-0.8-0.8c0,0,0,0,0,0c-0.4,0-0.8,0.4-0.8,0.8
	v0.8h-0.8c-0.9,0-1.6-0.7-1.6-1.6s0.7-1.6,1.6-1.6h1.5c0.1,0,0.2,0,0.3,0h1.5c0,0.9,0.7,1.6,1.6,1.6c0.9,0,1.6-0.7,1.6-1.6
	c0-0.9-0.7-1.6-1.6-1.6c0,0,0,0-0.1,0h-2.4v-3.1c0-0.1,0-0.2,0-0.3v-1.5c0-0.4-0.4-0.8-0.8-0.8c0,0,0,0,0,0c-0.4,0-0.8,0.4-0.8,0.8
	v0.8h-0.8c-0.9,0-1.6-0.7-1.6-1.6c0-0.9,0.7-1.6,1.6-1.6h1.5c0.1,0,0.2,0,0.3,0h1.5c0,0.9,0.7,1.6,1.6,1.6c0.9,0,1.6-0.7,1.6-1.6
	c0-0.9-0.7-1.6-1.6-1.6c0,0,0,0-0.1,0h-2.4v-7.3C22.7,17,23,16.6,23.5,16.6z M30.7,16.6h29.8c0.5,0,0.8,0.4,0.8,0.8v45.2
	c0,0.5-0.4,0.8-0.8,0.8H30.7V16.6z M33.1,18.2c-0.4,0-0.8,0.4-0.8,0.8c0,0.4,0.4,0.8,0.8,0.8c0.4,0,0.8-0.4,0.8-0.8
	C34,18.6,33.6,18.2,33.1,18.2z M36.4,18.2c-0.4,0-0.8,0.4-0.8,0.8c0,0.4,0.4,0.8,0.8,0.8s0.8-0.4,0.8-0.8
	C37.2,18.6,36.8,18.2,36.4,18.2z M39.6,18.2c-0.4,0-0.8,0.4-0.8,0.8c0,0.4,0.4,0.8,0.8,0.8c0.4,0,0.8-0.4,0.8-0.8
	C40.4,18.6,40,18.2,39.6,18.2z M42.8,18.2c-0.4,0-0.8,0.4-0.8,0.8c0,0.4,0.4,0.8,0.8,0.8c0.4,0,0.8-0.4,0.8-0.8
	C43.6,18.6,43.3,18.2,42.8,18.2z M46,18.2c-0.4,0-0.8,0.4-0.8,0.8c0,0.4,0.4,0.8,0.8,0.8c0.4,0,0.8-0.4,0.8-0.8
	C46.9,18.6,46.5,18.2,46,18.2z M49.3,18.2c-0.4,0-0.8,0.4-0.8,0.8c0,0.4,0.4,0.8,0.8,0.8c0.4,0,0.8-0.4,0.8-0.8
	C50.1,18.6,49.7,18.2,49.3,18.2z M52.5,18.2c-0.4,0-0.8,0.4-0.8,0.8c0,0.4,0.4,0.8,0.8,0.8s0.8-0.4,0.8-0.8
	C53.3,18.6,52.9,18.2,52.5,18.2z M55.7,18.2c-0.4,0-0.8,0.4-0.8,0.8c0,0.4,0.4,0.8,0.8,0.8c0.4,0,0.8-0.4,0.8-0.8
	C56.5,18.6,56.2,18.2,55.7,18.2z M59,18.2c-0.4,0-0.8,0.4-0.8,0.8c0,0.4,0.4,0.8,0.8,0.8c0.4,0,0.8-0.4,0.8-0.8
	C59.8,18.6,59.4,18.2,59,18.2z M59,21.5c-0.4,0-0.8,0.4-0.8,0.8s0.4,0.8,0.8,0.8c0.4,0,0.8-0.4,0.8-0.8S59.4,21.5,59,21.5z
	 M35.6,24.7v0.8V36h17.7V24.7H35.6z M59,24.7c-0.4,0-0.8,0.4-0.8,0.8s0.4,0.8,0.8,0.8c0.4,0,0.8-0.4,0.8-0.8S59.4,24.7,59,24.7z
	 M37.2,26.3h14.5v8.1H37.2V26.3z M59,27.9c-0.4,0-0.8,0.4-0.8,0.8s0.4,0.8,0.8,0.8c0.4,0,0.8-0.4,0.8-0.8S59.4,27.9,59,27.9z
	 M59,31.1c-0.4,0-0.8,0.4-0.8,0.8s0.4,0.8,0.8,0.8c0.4,0,0.8-0.4,0.8-0.8S59.4,31.1,59,31.1z M59,34.4c-0.4,0-0.8,0.4-0.8,0.8
	c0,0.4,0.4,0.8,0.8,0.8c0.4,0,0.8-0.4,0.8-0.8C59.8,34.7,59.4,34.4,59,34.4z M59,37.6c-0.4,0-0.8,0.4-0.8,0.8c0,0.4,0.4,0.8,0.8,0.8
	c0.4,0,0.8-0.4,0.8-0.8C59.8,37.9,59.4,37.6,59,37.6z M35.6,39.2v1.6h17.7v-1.6H35.6z M59,40.8c-0.4,0-0.8,0.4-0.8,0.8
	c0,0.4,0.4,0.8,0.8,0.8c0.4,0,0.8-0.4,0.8-0.8C59.8,41.2,59.4,40.8,59,40.8z M35.6,43.2v1.6h17.7v-1.6H35.6z M59,44
	c-0.4,0-0.8,0.4-0.8,0.8c0,0.4,0.4,0.8,0.8,0.8c0.4,0,0.8-0.4,0.8-0.8C59.8,44.4,59.4,44,59,44z M35.6,47.3v1.6h9.7v-1.6H35.6z
	 M59,47.3c-0.4,0-0.8,0.4-0.8,0.8c0,0.4,0.4,0.8,0.8,0.8c0.4,0,0.8-0.4,0.8-0.8C59.8,47.6,59.4,47.3,59,47.3z M59,50.5
	c-0.4,0-0.8,0.4-0.8,0.8c0,0.4,0.4,0.8,0.8,0.8c0.4,0,0.8-0.4,0.8-0.8C59.8,50.8,59.4,50.5,59,50.5z M59,53.7
	c-0.4,0-0.8,0.4-0.8,0.8c0,0.4,0.4,0.8,0.8,0.8c0.4,0,0.8-0.4,0.8-0.8C59.8,54.1,59.4,53.7,59,53.7z M59,56.9
	c-0.4,0-0.8,0.4-0.8,0.8c0,0.4,0.4,0.8,0.8,0.8c0.4,0,0.8-0.4,0.8-0.8C59.8,57.3,59.4,56.9,59,56.9z M33.1,60.2
	c-0.4,0-0.8,0.4-0.8,0.8c0,0.4,0.4,0.8,0.8,0.8c0.4,0,0.8-0.4,0.8-0.8C34,60.5,33.6,60.2,33.1,60.2z M36.4,60.2
	c-0.4,0-0.8,0.4-0.8,0.8c0,0.4,0.4,0.8,0.8,0.8s0.8-0.4,0.8-0.8C37.2,60.5,36.8,60.2,36.4,60.2z M39.6,60.2c-0.4,0-0.8,0.4-0.8,0.8
	c0,0.4,0.4,0.8,0.8,0.8c0.4,0,0.8-0.4,0.8-0.8C40.4,60.5,40,60.2,39.6,60.2z M42.8,60.2c-0.4,0-0.8,0.4-0.8,0.8
	c0,0.4,0.4,0.8,0.8,0.8c0.4,0,0.8-0.4,0.8-0.8C43.6,60.5,43.3,60.2,42.8,60.2z M46,60.2c-0.4,0-0.8,0.4-0.8,0.8
	c0,0.4,0.4,0.8,0.8,0.8c0.4,0,0.8-0.4,0.8-0.8C46.9,60.5,46.5,60.2,46,60.2z M49.3,60.2c-0.4,0-0.8,0.4-0.8,0.8
	c0,0.4,0.4,0.8,0.8,0.8c0.4,0,0.8-0.4,0.8-0.8C50.1,60.5,49.7,60.2,49.3,60.2z M52.5,60.2c-0.4,0-0.8,0.4-0.8,0.8
	c0,0.4,0.4,0.8,0.8,0.8s0.8-0.4,0.8-0.8C53.3,60.5,52.9,60.2,52.5,60.2z M55.7,60.2c-0.4,0-0.8,0.4-0.8,0.8c0,0.4,0.4,0.8,0.8,0.8
	c0.4,0,0.8-0.4,0.8-0.8C56.5,60.5,56.2,60.2,55.7,60.2z M59,60.2c-0.4,0-0.8,0.4-0.8,0.8c0,0.4,0.4,0.8,0.8,0.8
	c0.4,0,0.8-0.4,0.8-0.8C59.8,60.5,59.4,60.2,59,60.2z"/>
</svg>
