<?xml version="1.0" encoding="UTF-8"?>
<svg width="57px" height="62px" viewBox="0 0 57 62" version="1.1" xmlns="http://www.w3.org/2000/svg" xmlns:xlink="http://www.w3.org/1999/xlink">
    <!-- Generator: Sketch 48.1 (47250) - http://www.bohemiancoding.com/sketch -->
    <title>notebook_gray</title>
    <desc>Created with Sketch.</desc>
    <defs></defs>
    <g id="Page-1" stroke="none" stroke-width="1" fill="none" fill-rule="evenodd">
        <g id="notebook" fill="#4A4A4A" fill-rule="nonzero">
            <path d="M8,0 C6.35503,0 5,1.35503 5,3 L5,12 L4,12 C1.802666,12 0,13.802666 0,16 L0,17 L0.203125,17 C0.659479,18.706363 2.156406,20 4,20 L5,20 L5,23 L4,23 C1.802666,23 0,24.802666 0,27 L0,28 L0.203125,28 C0.659479,29.706363 2.156406,31 4,31 L5,31 L5,34 L4,34 C1.802666,34 0,35.802666 0,38 L0,39 L0.203125,39 C0.659479,40.706363 2.156406,42 4,42 L5,42 L5,45 L4,45 C1.802666,45 0,46.802666 0,49 L0,50 L0.203125,50 C0.659479,51.706363 2.156406,53 4,53 L5,53 L5,59 C5,60.64497 6.35503,62 8,62 L54,62 C55.64497,62 57,60.64497 57,59 L57,3 C57,1.35503 55.64497,0 54,0 L8,0 Z M8,2 L15,2 L15,60 L8,60 C7.43497,60 7,59.56503 7,59 L7,52.167969 C7.01784905,52.0599776 7.01784905,51.9497884 7,51.841797 L7,50 C7.00510029,49.6393641 6.8156247,49.3039186 6.50412715,49.1221123 C6.1926296,48.9403059 5.8073704,48.9403059 5.49587285,49.1221123 C5.1843753,49.3039186 4.99489971,49.6393641 5,50 L5,51 L4,51 C2.883334,51 2,50.116666 2,49 C2,47.883334 2.883334,47 4,47 L8,47 C8,48.1045695 8.8954305,49 10,49 C11.1045695,49 12,48.1045695 12,47 C11.9996141,45.9230736 11.1465727,45.0398134 10.070312,45.001953 C10.0469048,45.0004777 10.023453,44.9998263 10,45 L7,45 L7,41.167969 C7.01784905,41.0599776 7.01784905,40.9497884 7,40.841797 L7,39 C7.00370146,38.7296997 6.89782332,38.4694133 6.70649033,38.2784483 C6.51515734,38.0874832 6.25466771,37.9821063 5.984375,37.986328 C5.4328588,37.9949491 4.99244728,38.4484681 5,39 L5,40 L4,40 C2.883334,40 2,39.116666 2,38 C2,36.883334 2.883334,36 4,36 L8,36 C8,37.1045695 8.8954305,38 10,38 C11.1045695,38 12,37.1045695 12,36 C11.9996141,34.9230736 11.1465727,34.0398134 10.070312,34.001953 C10.0469048,34.0004777 10.023453,33.9998263 10,34 L7,34 L7,30.167969 C7.01784905,30.0599776 7.01784905,29.9497884 7,29.841797 L7,28 C7.00370146,27.7296997 6.89782332,27.4694133 6.70649033,27.2784483 C6.51515734,27.0874832 6.25466771,26.9821063 5.984375,26.986328 C5.4328588,26.9949491 4.99244728,27.4484681 5,28 L5,29 L4,29 C2.883334,29 2,28.116666 2,27 C2,25.883334 2.883334,25 4,25 L5.832031,25 C5.94002244,25.017849 6.05021156,25.017849 6.158203,25 L8,25 C8,26.1045695 8.8954305,27 10,27 C11.1045695,27 12,26.1045695 12,25 C11.9996141,23.9230736 11.1465727,23.0398134 10.070312,23.001953 C10.0469048,23.0004777 10.023453,22.9998263 10,23 L7,23 L7,19.167969 C7.01784905,19.0599776 7.01784905,18.9497884 7,18.841797 L7,17 C7.00370146,16.7296997 6.89782332,16.4694133 6.70649033,16.2784483 C6.51515734,16.0874832 6.25466771,15.9821063 5.984375,15.986328 C5.4328588,15.9949491 4.99244728,16.4484681 5,17 L5,18 L4,18 C2.883334,18 2,17.116666 2,16 C2,14.883334 2.883334,14 4,14 L5.832031,14 C5.94002244,14.017849 6.05021156,14.017849 6.158203,14 L8,14 C8,15.1045695 8.8954305,16 10,16 C11.1045695,16 12,15.1045695 12,14 C11.9996141,12.9230736 11.1465727,12.0398134 10.070312,12.001953 C10.0469048,12.0004777 10.023453,11.9998263 10,12 L7,12 L7,3 C7,2.43497 7.43497,2 8,2 Z M17,2 L54,2 C54.56503,2 55,2.43497 55,3 L55,59 C55,59.56503 54.56503,60 54,60 L17,60 L17,2 Z M20,4 C19.4477153,4 19,4.44771525 19,5 C19,5.55228475 19.4477153,6 20,6 C20.5522847,6 21,5.55228475 21,5 C21,4.44771525 20.5522847,4 20,4 Z M24,4 C23.4477153,4 23,4.44771525 23,5 C23,5.55228475 23.4477153,6 24,6 C24.5522847,6 25,5.55228475 25,5 C25,4.44771525 24.5522847,4 24,4 Z M28,4 C27.4477153,4 27,4.44771525 27,5 C27,5.55228475 27.4477153,6 28,6 C28.5522847,6 29,5.55228475 29,5 C29,4.44771525 28.5522847,4 28,4 Z M32,4 C31.4477153,4 31,4.44771525 31,5 C31,5.55228475 31.4477153,6 32,6 C32.5522847,6 33,5.55228475 33,5 C33,4.44771525 32.5522847,4 32,4 Z M36,4 C35.4477153,4 35,4.44771525 35,5 C35,5.55228475 35.4477153,6 36,6 C36.5522847,6 37,5.55228475 37,5 C37,4.44771525 36.5522847,4 36,4 Z M40,4 C39.4477153,4 39,4.44771525 39,5 C39,5.55228475 39.4477153,6 40,6 C40.5522847,6 41,5.55228475 41,5 C41,4.44771525 40.5522847,4 40,4 Z M44,4 C43.4477153,4 43,4.44771525 43,5 C43,5.55228475 43.4477153,6 44,6 C44.5522847,6 45,5.55228475 45,5 C45,4.44771525 44.5522847,4 44,4 Z M48,4 C47.4477153,4 47,4.44771525 47,5 C47,5.55228475 47.4477153,6 48,6 C48.5522847,6 49,5.55228475 49,5 C49,4.44771525 48.5522847,4 48,4 Z M52,4 C51.4477153,4 51,4.44771525 51,5 C51,5.55228475 51.4477153,6 52,6 C52.5522847,6 53,5.55228475 53,5 C53,4.44771525 52.5522847,4 52,4 Z M52,8 C51.4477153,8 51,8.44771525 51,9 C51,9.55228475 51.4477153,10 52,10 C52.5522847,10 53,9.55228475 53,9 C53,8.44771525 52.5522847,8 52,8 Z M23,12 L23,13 L23,26 L45,26 L45,12 L23,12 Z M52,12 C51.4477153,12 51,12.4477153 51,13 C51,13.5522847 51.4477153,14 52,14 C52.5522847,14 53,13.5522847 53,13 C53,12.4477153 52.5522847,12 52,12 Z M25,14 L43,14 L43,24 L25,24 L25,14 Z M52,16 C51.4477153,16 51,16.4477153 51,17 C51,17.5522847 51.4477153,18 52,18 C52.5522847,18 53,17.5522847 53,17 C53,16.4477153 52.5522847,16 52,16 Z M52,20 C51.4477153,20 51,20.4477153 51,21 C51,21.5522847 51.4477153,22 52,22 C52.5522847,22 53,21.5522847 53,21 C53,20.4477153 52.5522847,20 52,20 Z M52,24 C51.4477153,24 51,24.4477153 51,25 C51,25.5522847 51.4477153,26 52,26 C52.5522847,26 53,25.5522847 53,25 C53,24.4477153 52.5522847,24 52,24 Z M52,28 C51.4477153,28 51,28.4477153 51,29 C51,29.5522847 51.4477153,30 52,30 C52.5522847,30 53,29.5522847 53,29 C53,28.4477153 52.5522847,28 52,28 Z M23,30 L23,32 L45,32 L45,30 L23,30 Z M52,32 C51.4477153,32 51,32.4477153 51,33 C51,33.5522847 51.4477153,34 52,34 C52.5522847,34 53,33.5522847 53,33 C53,32.4477153 52.5522847,32 52,32 Z M23,35 L23,37 L45,37 L45,35 L23,35 Z M52,36 C51.4477153,36 51,36.4477153 51,37 C51,37.5522847 51.4477153,38 52,38 C52.5522847,38 53,37.5522847 53,37 C53,36.4477153 52.5522847,36 52,36 Z M23,40 L23,42 L35,42 L35,40 L23,40 Z M52,40 C51.4477153,40 51,40.4477153 51,41 C51,41.5522847 51.4477153,42 52,42 C52.5522847,42 53,41.5522847 53,41 C53,40.4477153 52.5522847,40 52,40 Z M52,44 C51.4477153,44 51,44.4477153 51,45 C51,45.5522847 51.4477153,46 52,46 C52.5522847,46 53,45.5522847 53,45 C53,44.4477153 52.5522847,44 52,44 Z M52,48 C51.4477153,48 51,48.4477153 51,49 C51,49.5522847 51.4477153,50 52,50 C52.5522847,50 53,49.5522847 53,49 C53,48.4477153 52.5522847,48 52,48 Z M52,52 C51.4477153,52 51,52.4477153 51,53 C51,53.5522847 51.4477153,54 52,54 C52.5522847,54 53,53.5522847 53,53 C53,52.4477153 52.5522847,52 52,52 Z M20,56 C19.4477153,56 19,56.4477153 19,57 C19,57.5522847 19.4477153,58 20,58 C20.5522847,58 21,57.5522847 21,57 C21,56.4477153 20.5522847,56 20,56 Z M24,56 C23.4477153,56 23,56.4477153 23,57 C23,57.5522847 23.4477153,58 24,58 C24.5522847,58 25,57.5522847 25,57 C25,56.4477153 24.5522847,56 24,56 Z M28,56 C27.4477153,56 27,56.4477153 27,57 C27,57.5522847 27.4477153,58 28,58 C28.5522847,58 29,57.5522847 29,57 C29,56.4477153 28.5522847,56 28,56 Z M32,56 C31.4477153,56 31,56.4477153 31,57 C31,57.5522847 31.4477153,58 32,58 C32.5522847,58 33,57.5522847 33,57 C33,56.4477153 32.5522847,56 32,56 Z M36,56 C35.4477153,56 35,56.4477153 35,57 C35,57.5522847 35.4477153,58 36,58 C36.5522847,58 37,57.5522847 37,57 C37,56.4477153 36.5522847,56 36,56 Z M40,56 C39.4477153,56 39,56.4477153 39,57 C39,57.5522847 39.4477153,58 40,58 C40.5522847,58 41,57.5522847 41,57 C41,56.4477153 40.5522847,56 40,56 Z M44,56 C43.4477153,56 43,56.4477153 43,57 C43,57.5522847 43.4477153,58 44,58 C44.5522847,58 45,57.5522847 45,57 C45,56.4477153 44.5522847,56 44,56 Z M48,56 C47.4477153,56 47,56.4477153 47,57 C47,57.5522847 47.4477153,58 48,58 C48.5522847,58 49,57.5522847 49,57 C49,56.4477153 48.5522847,56 48,56 Z M52,56 C51.4477153,56 51,56.4477153 51,57 C51,57.5522847 51.4477153,58 52,58 C52.5522847,58 53,57.5522847 53,57 C53,56.4477153 52.5522847,56 52,56 Z" id="Shape"></path>
        </g>
    </g>
</svg>