<?xml version="1.0"?>
<svg xmlns="http://www.w3.org/2000/svg" viewBox="0 0 80 80" width="80px" height="80px">
    <path style="line-height:normal;text-indent:0;text-align:start;text-decoration-line:none;text-decoration-style:solid;text-decoration-color:#000;text-transform:none;block-progression:tb;isolation:auto;mix-blend-mode:normal" d="M 20 9 C 18.35503 9 17 10.35503 17 12 L 17 21 L 16 21 C 13.802666 21 12 22.802666 12 25 L 12 26 L 12.203125 26 C 12.659479 27.706363 14.156406 29 16 29 L 17 29 L 17 32 L 16 32 C 13.802666 32 12 33.802666 12 36 L 12 37 L 12.203125 37 C 12.659479 38.706363 14.156406 40 16 40 L 17 40 L 17 43 L 16 43 C 13.802666 43 12 44.802666 12 47 L 12 48 L 12.203125 48 C 12.659479 49.706363 14.156406 51 16 51 L 17 51 L 17 54 L 16 54 C 13.802666 54 12 55.802666 12 58 L 12 59 L 12.203125 59 C 12.659479 60.706363 14.156406 62 16 62 L 17 62 L 17 68 C 17 69.64497 18.35503 71 20 71 L 66 71 C 67.64497 71 69 69.64497 69 68 L 69 12 C 69 10.35503 67.64497 9 66 9 L 20 9 z M 20 11 L 27 11 L 27 69 L 20 69 C 19.43497 69 19 68.56503 19 68 L 19 61.167969 A 1.0001 1.0001 0 0 0 19 60.841797 L 19 59 A 1.0001 1.0001 0 1 0 17 59 L 17 60 L 16 60 C 14.883334 60 14 59.116666 14 58 C 14 56.883334 14.883334 56 16 56 L 20 56 A 2 2 0 0 0 22 58 A 2 2 0 0 0 24 56 A 2 2 0 0 0 22.070312 54.001953 A 1.0001 1.0001 0 0 0 22 54 L 19 54 L 19 50.167969 A 1.0001 1.0001 0 0 0 19 49.841797 L 19 48 A 1.0001 1.0001 0 0 0 17.984375 46.986328 A 1.0001 1.0001 0 0 0 17 48 L 17 49 L 16 49 C 14.883334 49 14 48.116666 14 47 C 14 45.883334 14.883334 45 16 45 L 20 45 A 2 2 0 0 0 22 47 A 2 2 0 0 0 24 45 A 2 2 0 0 0 22.070312 43.001953 A 1.0001 1.0001 0 0 0 22 43 L 19 43 L 19 39.167969 A 1.0001 1.0001 0 0 0 19 38.841797 L 19 37 A 1.0001 1.0001 0 0 0 17.984375 35.986328 A 1.0001 1.0001 0 0 0 17 37 L 17 38 L 16 38 C 14.883334 38 14 37.116666 14 36 C 14 34.883334 14.883334 34 16 34 L 17.832031 34 A 1.0001 1.0001 0 0 0 18.158203 34 L 20 34 A 2 2 0 0 0 22 36 A 2 2 0 0 0 24 34 A 2 2 0 0 0 22.070312 32.001953 A 1.0001 1.0001 0 0 0 22 32 L 19 32 L 19 28.167969 A 1.0001 1.0001 0 0 0 19 27.841797 L 19 26 A 1.0001 1.0001 0 0 0 17.984375 24.986328 A 1.0001 1.0001 0 0 0 17 26 L 17 27 L 16 27 C 14.883334 27 14 26.116666 14 25 C 14 23.883334 14.883334 23 16 23 L 17.832031 23 A 1.0001 1.0001 0 0 0 18.158203 23 L 20 23 A 2 2 0 0 0 22 25 A 2 2 0 0 0 24 23 A 2 2 0 0 0 22.070312 21.001953 A 1.0001 1.0001 0 0 0 22 21 L 19 21 L 19 12 C 19 11.43497 19.43497 11 20 11 z M 29 11 L 66 11 C 66.56503 11 67 11.43497 67 12 L 67 68 C 67 68.56503 66.56503 69 66 69 L 29 69 L 29 11 z M 32 13 A 1 1 0 0 0 31 14 A 1 1 0 0 0 32 15 A 1 1 0 0 0 33 14 A 1 1 0 0 0 32 13 z M 36 13 A 1 1 0 0 0 35 14 A 1 1 0 0 0 36 15 A 1 1 0 0 0 37 14 A 1 1 0 0 0 36 13 z M 40 13 A 1 1 0 0 0 39 14 A 1 1 0 0 0 40 15 A 1 1 0 0 0 41 14 A 1 1 0 0 0 40 13 z M 44 13 A 1 1 0 0 0 43 14 A 1 1 0 0 0 44 15 A 1 1 0 0 0 45 14 A 1 1 0 0 0 44 13 z M 48 13 A 1 1 0 0 0 47 14 A 1 1 0 0 0 48 15 A 1 1 0 0 0 49 14 A 1 1 0 0 0 48 13 z M 52 13 A 1 1 0 0 0 51 14 A 1 1 0 0 0 52 15 A 1 1 0 0 0 53 14 A 1 1 0 0 0 52 13 z M 56 13 A 1 1 0 0 0 55 14 A 1 1 0 0 0 56 15 A 1 1 0 0 0 57 14 A 1 1 0 0 0 56 13 z M 60 13 A 1 1 0 0 0 59 14 A 1 1 0 0 0 60 15 A 1 1 0 0 0 61 14 A 1 1 0 0 0 60 13 z M 64 13 A 1 1 0 0 0 63 14 A 1 1 0 0 0 64 15 A 1 1 0 0 0 65 14 A 1 1 0 0 0 64 13 z M 64 17 A 1 1 0 0 0 63 18 A 1 1 0 0 0 64 19 A 1 1 0 0 0 65 18 A 1 1 0 0 0 64 17 z M 35 21 L 35 22 L 35 35 L 57 35 L 57 21 L 35 21 z M 64 21 A 1 1 0 0 0 63 22 A 1 1 0 0 0 64 23 A 1 1 0 0 0 65 22 A 1 1 0 0 0 64 21 z M 37 23 L 55 23 L 55 33 L 37 33 L 37 23 z M 64 25 A 1 1 0 0 0 63 26 A 1 1 0 0 0 64 27 A 1 1 0 0 0 65 26 A 1 1 0 0 0 64 25 z M 64 29 A 1 1 0 0 0 63 30 A 1 1 0 0 0 64 31 A 1 1 0 0 0 65 30 A 1 1 0 0 0 64 29 z M 64 33 A 1 1 0 0 0 63 34 A 1 1 0 0 0 64 35 A 1 1 0 0 0 65 34 A 1 1 0 0 0 64 33 z M 64 37 A 1 1 0 0 0 63 38 A 1 1 0 0 0 64 39 A 1 1 0 0 0 65 38 A 1 1 0 0 0 64 37 z M 35 39 L 35 41 L 57 41 L 57 39 L 35 39 z M 64 41 A 1 1 0 0 0 63 42 A 1 1 0 0 0 64 43 A 1 1 0 0 0 65 42 A 1 1 0 0 0 64 41 z M 35 44 L 35 46 L 57 46 L 57 44 L 35 44 z M 64 45 A 1 1 0 0 0 63 46 A 1 1 0 0 0 64 47 A 1 1 0 0 0 65 46 A 1 1 0 0 0 64 45 z M 35 49 L 35 51 L 47 51 L 47 49 L 35 49 z M 64 49 A 1 1 0 0 0 63 50 A 1 1 0 0 0 64 51 A 1 1 0 0 0 65 50 A 1 1 0 0 0 64 49 z M 64 53 A 1 1 0 0 0 63 54 A 1 1 0 0 0 64 55 A 1 1 0 0 0 65 54 A 1 1 0 0 0 64 53 z M 64 57 A 1 1 0 0 0 63 58 A 1 1 0 0 0 64 59 A 1 1 0 0 0 65 58 A 1 1 0 0 0 64 57 z M 64 61 A 1 1 0 0 0 63 62 A 1 1 0 0 0 64 63 A 1 1 0 0 0 65 62 A 1 1 0 0 0 64 61 z M 32 65 A 1 1 0 0 0 31 66 A 1 1 0 0 0 32 67 A 1 1 0 0 0 33 66 A 1 1 0 0 0 32 65 z M 36 65 A 1 1 0 0 0 35 66 A 1 1 0 0 0 36 67 A 1 1 0 0 0 37 66 A 1 1 0 0 0 36 65 z M 40 65 A 1 1 0 0 0 39 66 A 1 1 0 0 0 40 67 A 1 1 0 0 0 41 66 A 1 1 0 0 0 40 65 z M 44 65 A 1 1 0 0 0 43 66 A 1 1 0 0 0 44 67 A 1 1 0 0 0 45 66 A 1 1 0 0 0 44 65 z M 48 65 A 1 1 0 0 0 47 66 A 1 1 0 0 0 48 67 A 1 1 0 0 0 49 66 A 1 1 0 0 0 48 65 z M 52 65 A 1 1 0 0 0 51 66 A 1 1 0 0 0 52 67 A 1 1 0 0 0 53 66 A 1 1 0 0 0 52 65 z M 56 65 A 1 1 0 0 0 55 66 A 1 1 0 0 0 56 67 A 1 1 0 0 0 57 66 A 1 1 0 0 0 56 65 z M 60 65 A 1 1 0 0 0 59 66 A 1 1 0 0 0 60 67 A 1 1 0 0 0 61 66 A 1 1 0 0 0 60 65 z M 64 65 A 1 1 0 0 0 63 66 A 1 1 0 0 0 64 67 A 1 1 0 0 0 65 66 A 1 1 0 0 0 64 65 z"/>
</svg>
