<?xml version="1.0" encoding="utf-8"?>
<!-- Generator: Adobe Illustrator 22.1.0, SVG Export Plug-In . SVG Version: 6.00 Build 0)  -->
<svg version="1.1" id="Layer_1" xmlns="http://www.w3.org/2000/svg" xmlns:xlink="http://www.w3.org/1999/xlink" x="0px" y="0px"
	 viewBox="0 0 1080 600" style="enable-background:new 0 0 1080 600;" xml:space="preserve">
<style type="text/css">
	.st0{font-family:'Helvetica';}
	.st1{font-size:65.3105px;}
	.st2{fill:#666666;}
	.st3{font-size:39.1863px;}
	.st4{font-size:45.7174px;}
	.st5{fill:none;stroke:#0071BC;stroke-miterlimit:10;}
	.st6{font-size:40px;}
	.st7{fill:#808080;}
	.st8{font-size:30px;}
	.st9{fill:#4D4D4D;}
</style>
<text transform="matrix(1 0 0 1 15.8306 79.0151)" class="st0 st1">Electric Toothbrush Sales</text>
<text transform="matrix(1 0 0 1 19.6729 130.3408)" class="st2 st0 st3">by company, annual</text>
<text transform="matrix(1 0 0 1 349.8848 207.4067)" class="st0 st4">Crestgate</text>
<text transform="matrix(1 0 0 1 919.9043 207.4058)" class="st0 st4">Brawn</text>
<text transform="matrix(1 0 0 1 644.7539 207.4067)" class="st0 st4">Dental-B</text>
<path class="st5" d="M19,224c1035,0,1035,0,1035,0"/>
<text transform="matrix(1 0 0 1 18 291.4409)" class="st0 st6">Price</text>
<text transform="matrix(1 0 0 1 18 410)" class="st0 st6">Quantity</text>
<text transform="matrix(1 0 0 1 18 528.5586)" class="st0 st6">Revenue</text>
<text transform="matrix(1 0 0 1 17 319.4409)" class="st7 st0 st8">per unit</text>
<text transform="matrix(1 0 0 1 17 449.4409)" class="st7 st0 st8">millions</text>
<text transform="matrix(1 0 0 1 17 559.4409)" class="st7 st0 st8">millions</text>
<text transform="matrix(1 0 0 1 481.3516 289.8379)" class="st9 st0 st6">$60</text>
<text transform="matrix(1 0 0 1 982.751 288.7617)" class="st9 st0 st6">$20</text>
<text transform="matrix(1 0 0 1 755.8848 289.7617)" class="st9 st0 st6">$30</text>
<text transform="matrix(1 0 0 1 492.4844 408.8379)" class="st9 st0 st6">0.5</text>
<text transform="matrix(1 0 0 1 993.8838 407.7617)" class="st9 st0 st6">1.5</text>
<text transform="matrix(1 0 0 1 767.0176 408.7617)" class="st9 st0 st6">1.2</text>
<text transform="matrix(1 0 0 1 481.3516 528.8379)" class="st9 st0 st6">$30</text>
<text transform="matrix(1 0 0 1 982.751 527.7617)" class="st9 st0 st6">$30</text>
<text transform="matrix(1 0 0 1 722.5254 528.7617)" class="st9 st0 st6">$30.6</text>
</svg>
