<?xml version="1.0" encoding="utf-8"?>
<!-- Generator: Adobe Illustrator 22.1.0, SVG Export Plug-In . SVG Version: 6.00 Build 0)  -->
<svg version="1.1" id="Layer_1" xmlns="http://www.w3.org/2000/svg" xmlns:xlink="http://www.w3.org/1999/xlink" x="0px" y="0px"
	 viewBox="0 0 1080 600" style="enable-background:new 0 0 1080 600;" xml:space="preserve">
<style type="text/css">
	.st0{font-family:'Helvetica';}
	.st1{font-size:65.3105px;}
	.st2{fill:#666666;}
	.st3{font-size:39.1863px;}
	.st4{font-size:45.7174px;}
	.st5{fill:none;stroke:#0071BC;stroke-miterlimit:10;}
	.st6{font-size:40px;}
	.st7{fill:#808080;}
	.st8{font-size:30px;}
	.st9{fill:#4D4D4D;}
</style>
<text transform="matrix(1 0 0 1 15.8306 78.8765)" class="st0 st1">Replacement Head Sales</text>
<text transform="matrix(1 0 0 1 19.6729 130.2021)" class="st2 st0 st3">by company, annual</text>
<text transform="matrix(1 0 0 1 349.8848 207.2681)" class="st0 st4">Crestgate</text>
<text transform="matrix(1 0 0 1 921.9043 207.2671)" class="st0 st4">Brawn</text>
<text transform="matrix(1 0 0 1 647.7539 207.2681)" class="st0 st4">Dental-B</text>
<path class="st5" d="M19,223.9c1035,0,1035,0,1035,0"/>
<text transform="matrix(1 0 0 1 18 291.3022)" class="st0 st6">Price</text>
<text transform="matrix(1 0 0 1 18 409.8613)" class="st0 st6">Quantity</text>
<text transform="matrix(1 0 0 1 18 528.4199)" class="st0 st6">Revenue</text>
<text transform="matrix(1 0 0 1 17 319.3022)" class="st7 st0 st8">per unit</text>
<text transform="matrix(1 0 0 1 17 449.3022)" class="st7 st0 st8">millions</text>
<text transform="matrix(1 0 0 1 17 559.3022)" class="st7 st0 st8">millions</text>
<text transform="matrix(1 0 0 1 481.3516 289.6992)" class="st9 st0 st6">$10</text>
<text transform="matrix(1 0 0 1 984.751 288.623)" class="st9 st0 st6">$15</text>
<text transform="matrix(1 0 0 1 758.8848 289.623)" class="st9 st0 st6">$20</text>
<text transform="matrix(1 0 0 1 525.8438 408.6992)" class="st9 st0 st6">2</text>
<text transform="matrix(1 0 0 1 1029.2432 407.623)" class="st9 st0 st6">7</text>
<text transform="matrix(1 0 0 1 803.377 408.623)" class="st9 st0 st6">5</text>
<text transform="matrix(1 0 0 1 481.3516 528.6992)" class="st9 st0 st6">$20</text>
<text transform="matrix(1 0 0 1 962.5049 527.623)" class="st9 st0 st6">$105</text>
<text transform="matrix(1 0 0 1 736.6387 528.623)" class="st9 st0 st6">$100</text>
</svg>
