<?xml version="1.0" encoding="utf-8"?>
<!-- Generator: Adobe Illustrator 22.1.0, SVG Export Plug-In . SVG Version: 6.00 Build 0)  -->
<svg version="1.1" id="Layer_1" xmlns="http://www.w3.org/2000/svg" xmlns:xlink="http://www.w3.org/1999/xlink" x="0px" y="0px"
	 viewBox="0 0 1080 1200" style="enable-background:new 0 0 1080 1200;" xml:space="preserve">
<style type="text/css">
	.st0{font-family:'Helvetica';}
	.st1{font-size:65px;}
	.st2{fill:#666666;}
	.st3{font-size:39.1863px;}
	.st4{font-size:30px;}
	.st5{fill:#666666;stroke:#000000;stroke-width:6;stroke-miterlimit:10;}
	.st6{fill:none;stroke:#000000;stroke-width:3;stroke-miterlimit:10;}
	.st7{fill:none;stroke:#666666;stroke-width:3;stroke-miterlimit:10;}
	.st8{fill:none;stroke:#000000;stroke-width:2;stroke-miterlimit:10;}
	.st9{fill:none;stroke:#000000;stroke-width:2;stroke-miterlimit:10;stroke-dasharray:12.0748,12.0748;}
	.st10{fill:none;stroke:#C1272D;stroke-width:4;stroke-miterlimit:10;}
</style>
<text transform="matrix(1 0 0 1 23.2852 113.9243)" class="st0 st1">Sales of Crestgate in Dollars</text>
<text transform="matrix(1 0 0 1 24.3086 164.25)" class="st2 st0 st3">units demanded, in hundreds of millions</text>
<text transform="matrix(1 0 0 1 81.6724 232.7046)" class="st2 st0 st4">Price</text>
<path class="st5" d="M239.1,611.1"/>
<path class="st6" d="M384.5,1003.8"/>
<g>
	<line class="st7" x1="110" y1="1064.2" x2="1011.1" y2="1064.2"/>
	<path class="st8" d="M110.7,1050.6c0,13,0,13,0,13"/>
	<path class="st8" d="M200.7,1050.6c0,13,0,13,0,13"/>
	<path class="st8" d="M290.7,1050.6c0,13,0,13,0,13"/>
	<path class="st8" d="M740.7,1050.6c0,13,0,13,0,13"/>
	<path class="st8" d="M650.7,1050.6c0,13,0,13,0,13"/>
	<path class="st8" d="M560.7,1050.6c0,13,0,13,0,13"/>
	<path class="st8" d="M470.7,1050.6c0,13,0,13,0,13"/>
	<path class="st8" d="M380.7,1050.6c0,13,0,13,0,13"/>
	<path class="st8" d="M920.7,1050.6c0,13,0,13,0,13"/>
	<path class="st8" d="M830.7,1050.6c0,13,0,13,0,13"/>
	<path class="st8" d="M1010.7,1051.2c0,13,0,13,0,13"/>
</g>
<g>
	<line class="st7" x1="111" y1="261.7" x2="111" y2="1064.6"/>
	<path class="st8" d="M124.5,262.3c-13,0-13,0-13,0"/>
	<path class="st8" d="M124.5,342.5c-13,0-13,0-13,0"/>
	<path class="st8" d="M124.5,422.7c-13,0-13,0-13,0"/>
	<path class="st8" d="M124.5,823.7c-13,0-13,0-13,0"/>
	<path class="st8" d="M124.5,743.5c-13,0-13,0-13,0"/>
	<path class="st8" d="M124.5,663.3c-13,0-13,0-13,0"/>
	<path class="st8" d="M124.5,583.1c-13,0-13,0-13,0"/>
	<path class="st8" d="M124.5,502.9c-13,0-13,0-13,0"/>
	<path class="st8" d="M124.5,984.1c-13,0-13,0-13,0"/>
	<path class="st8" d="M124.5,903.9c-13,0-13,0-13,0"/>
	<path class="st8" d="M123.9,1064.3c-13,0-13,0-13,0"/>
</g>
<g>
	<g>
		<path class="st8" d="M290.8,1062c0-2,0-4,0-6"/>
		<path class="st9" d="M290.8,1043.9c0-583,0-730.3,0-766.8"/>
		<path class="st8" d="M290.8,271.1c0-7.7,0-5.3,0-5.3"/>
	</g>
</g>
<line class="st10" x1="111.8" y1="342" x2="920.9" y2="1065.6"/>
<g>
	<text transform="matrix(1 0 0 1 193.8379 1098.1504)" class="st0 st4">1</text>
	<text transform="matrix(1 0 0 1 283.4375 1098.1504)" class="st0 st4">2</text>
	<text transform="matrix(1 0 0 1 994.2349 1098.1504)" class="st0 st4">10</text>
	<text transform="matrix(1 0 0 1 910.6353 1098.1504)" class="st0 st4">9</text>
	<text transform="matrix(1 0 0 1 821.0356 1098.1504)" class="st0 st4">8</text>
	<text transform="matrix(1 0 0 1 731.436 1098.1504)" class="st0 st4">7</text>
	<text transform="matrix(1 0 0 1 641.8364 1098.1504)" class="st0 st4">6</text>
	<text transform="matrix(1 0 0 1 552.2358 1098.1504)" class="st0 st4">5</text>
	<text transform="matrix(1 0 0 1 462.6367 1098.1504)" class="st0 st4">4</text>
	<text transform="matrix(1 0 0 1 373.0371 1098.1504)" class="st0 st4">3</text>
</g>
<text transform="matrix(1 0 0 1 34.5186 353.2788)" class="st0 st4">$4.5</text>
<text transform="matrix(1 0 0 1 34.5186 273.1592)" class="st0 st4">$5.0</text>
<text transform="matrix(1 0 0 1 34.5186 994.2354)" class="st0 st4">$0.5</text>
<text transform="matrix(1 0 0 1 34.5186 914.1152)" class="st0 st4">$1.0</text>
<text transform="matrix(1 0 0 1 34.5186 833.9961)" class="st0 st4">$1.5</text>
<text transform="matrix(1 0 0 1 34.5186 753.877)" class="st0 st4">$2.0</text>
<text transform="matrix(1 0 0 1 34.5186 673.7568)" class="st0 st4">$2.5</text>
<text transform="matrix(1 0 0 1 34.5186 593.6377)" class="st0 st4">$3.0</text>
<text transform="matrix(1 0 0 1 34.5186 513.5181)" class="st0 st4">$3.5</text>
<text transform="matrix(1 0 0 1 34.5186 433.3984)" class="st0 st4">$4.0</text>
<text transform="matrix(1 0 0 1 941.1738 996.9771)"><tspan x="0" y="0" class="st2 st0 st4">Quantity</tspan><tspan x="-17.5" y="36" class="st2 st0 st4">Demanded</tspan></text>
<text transform="matrix(1 0 0 1 325.1094 373.9771)"><tspan x="0" y="0" class="st2 st0 st4">Current</tspan><tspan x="-5.8" y="36" class="st2 st0 st4">Quantity</tspan></text>
</svg>
