<?xml version="1.0" encoding="utf-8"?>
<!-- Generator: Adobe Illustrator 16.0.0, SVG Export Plug-In . SVG Version: 6.00 Build 0)  -->
<!DOCTYPE svg PUBLIC "-//W3C//DTD SVG 1.1//EN" "http://www.w3.org/Graphics/SVG/1.1/DTD/svg11.dtd">
<svg version="1.1" id="Layer_1" xmlns="http://www.w3.org/2000/svg" xmlns:xlink="http://www.w3.org/1999/xlink" x="0px" y="0px"
	 width="1080px" height="1260px" viewBox="0 0 1080 1260" enable-background="new 0 0 1080 1260" xml:space="preserve">
<text transform="matrix(1 0 0 1 299.9751 79)"><tspan x="0" y="0" font-family="'Helvetica'" font-size="30">Youth</tspan><tspan x="35.039" y="36" font-family="'Helvetica'" font-size="30">per</tspan><tspan x="-11.646" y="72" font-family="'Helvetica'" font-size="30">Center</tspan></text>
<text transform="matrix(1 0 0 1 508.0288 81)"><tspan x="0" y="0" font-family="'Helvetica'" font-size="30">Youth</tspan><tspan x="35.04" y="36" font-family="'Helvetica'" font-size="30">per</tspan><tspan x="-51.65" y="72" font-family="'Helvetica'" font-size="30">Caregiver</tspan></text>
<text transform="matrix(1 0 0 1 664.1387 81)"><tspan x="0" y="0" font-family="'Helvetica'" font-size="30">Spending</tspan><tspan x="-3.311" y="36" font-family="'Helvetica'" font-size="30">per Youth</tspan><tspan x="43.461" y="72" font-family="'Helvetica'" font-size="30">(USD)</tspan></text>
<text transform="matrix(1 0 0 1 975.8184 81)"><tspan x="0" y="0" font-family="'Helvetica'" font-size="30">UN</tspan><tspan x="-105.059" y="36" font-family="'Helvetica'" font-size="30">Assesment</tspan><tspan x="-35.039" y="72" font-family="'Helvetica'" font-size="30">Score</tspan></text>
<g>
	<text transform="matrix(1 0 0 1 43 285.1162)" fill="#F44336" font-family="'Helvetica-Bold'" font-size="30">Laraguay</text>
	<text transform="matrix(1 0 0 1 332.4907 287.1162)" fill="#F44336" font-family="'Helvetica-Bold'" font-size="30">500</text>
	<text transform="matrix(1 0 0 1 555.8389 286.1162)" fill="#F44336" font-family="'Helvetica-Bold'" font-size="30">20</text>
	<text transform="matrix(1 0 0 1 722.1016 288.1162)" fill="#F44336" font-family="'Helvetica-Bold'" font-size="30">5,000</text>
	<text transform="matrix(1 0 0 1 988.5596 287.1162)" fill="#F44336" font-family="'Helvetica-Bold'" font-size="30">41</text>
</g>
<g>
	<text transform="matrix(1 0 0 1 43 403.3042)" font-family="'Helvetica-Oblique'" font-size="30">Regional Peers</text>
	<g>
		<g>
			<text transform="matrix(1 0 0 1 43 463.4922)" font-family="'Helvetica'" font-size="30">Peer A</text>
			<text transform="matrix(1 0 0 1 332.4907 464.4922)" font-family="'Helvetica'" font-size="30">400</text>
			<text transform="matrix(1 0 0 1 555.8389 464.4922)" font-family="'Helvetica'" font-size="30">16</text>
			<text transform="matrix(1 0 0 1 722.1016 466.4922)" font-family="'Helvetica'" font-size="30">3,000</text>
			<text transform="matrix(1 0 0 1 988.5596 466.4922)" font-family="'Helvetica'" font-size="30">38</text>
		</g>
		<g>
			<text transform="matrix(1 0 0 1 43 519.9819)" font-family="'Helvetica'" font-size="30">Peer B</text>
			<text transform="matrix(1 0 0 1 332.4907 520.9819)" font-family="'Helvetica'" font-size="30">700</text>
			<text transform="matrix(1 0 0 1 555.8389 520.9819)" font-family="'Helvetica'" font-size="30">18</text>
			<text transform="matrix(1 0 0 1 722.1016 522.9819)" font-family="'Helvetica'" font-size="30">4,000</text>
			<text transform="matrix(1 0 0 1 988.5596 522.9819)" font-family="'Helvetica'" font-size="30">43</text>
		</g>
		<g>
			<text transform="matrix(1 0 0 1 43 576.4717)" font-family="'Helvetica'" font-size="30">Peer C</text>
			<text transform="matrix(1 0 0 1 332.4907 577.4717)" font-family="'Helvetica'" font-size="30">800</text>
			<text transform="matrix(1 0 0 1 555.8389 577.4717)" font-family="'Helvetica'" font-size="30">20</text>
			<text transform="matrix(1 0 0 1 722.1016 579.4717)" font-family="'Helvetica'" font-size="30">5,500</text>
			<text transform="matrix(1 0 0 1 988.5596 579.4717)" font-family="'Helvetica'" font-size="30">48</text>
		</g>
	</g>
</g>
<g>
	<text transform="matrix(1 0 0 1 38 694.6602)"><tspan x="0" y="0" font-family="'Helvetica-Oblique'" font-size="30">Developed</tspan><tspan x="0" y="36" font-family="'Helvetica-Oblique'" font-size="30">Economies</tspan></text>
	<g>
		<g>
			<text transform="matrix(1 0 0 1 43.0005 790.8477)" font-family="'Helvetica'" font-size="30">Developed A</text>
			<text transform="matrix(1 0 0 1 332.4907 790.8477)" font-family="'Helvetica'" font-size="30">500</text>
			<text transform="matrix(1 0 0 1 555.8389 790.8477)" font-family="'Helvetica'" font-size="30">21</text>
			<text transform="matrix(1 0 0 1 722.1016 790.8477)" font-family="'Helvetica'" font-size="30">8,000</text>
			<text transform="matrix(1 0 0 1 988.5596 790.8477)" font-family="'Helvetica'" font-size="30">54</text>
		</g>
		<g>
			<text transform="matrix(1 0 0 1 43.0005 844.3379)" font-family="'Helvetica'" font-size="30">Developed B</text>
			<text transform="matrix(1 0 0 1 332.4907 844.3379)" font-family="'Helvetica'" font-size="30">350</text>
			<text transform="matrix(1 0 0 1 555.8389 844.3379)" font-family="'Helvetica'" font-size="30">23</text>
			<text transform="matrix(1 0 0 1 722.1016 844.3379)" font-family="'Helvetica'" font-size="30">8,500</text>
			<text transform="matrix(1 0 0 1 988.5596 844.3379)" font-family="'Helvetica'" font-size="30">55</text>
		</g>
		<g>
			<text transform="matrix(1 0 0 1 43.0005 897.8281)" font-family="'Helvetica'" font-size="30">Developed C</text>
			<text transform="matrix(1 0 0 1 332.4907 897.8281)" font-family="'Helvetica'" font-size="30">400</text>
			<text transform="matrix(1 0 0 1 555.8389 897.8281)" font-family="'Helvetica'" font-size="30">20</text>
			<text transform="matrix(1 0 0 1 722.1016 897.8281)" font-family="'Helvetica'" font-size="30">9,000</text>
			<text transform="matrix(1 0 0 1 988.5596 897.8281)" font-family="'Helvetica'" font-size="30">53</text>
		</g>
	</g>
</g>
<g>
	<text transform="matrix(1 0 0 1 40 1013.0156)" font-family="'Helvetica-Oblique'" font-size="30">Similar GDP</text>
	<g>
		<g>
			<text transform="matrix(1 0 0 1 45.0005 1073.2041)" font-family="'Helvetica'" font-size="30">Similar A</text>
			<text transform="matrix(1 0 0 1 332.4907 1073.2041)" font-family="'Helvetica'" font-size="30">600</text>
			<text transform="matrix(1 0 0 1 555.8389 1073.2041)" font-family="'Helvetica'" font-size="30">22</text>
			<text transform="matrix(1 0 0 1 722.1016 1073.2041)" font-family="'Helvetica'" font-size="30">3,500</text>
			<text transform="matrix(1 0 0 1 988.5596 1073.2041)" font-family="'Helvetica'" font-size="30">45</text>
		</g>
		<g>
			<text transform="matrix(1 0 0 1 45.0005 1126.6943)" font-family="'Helvetica'" font-size="30">Similar B</text>
			<text transform="matrix(1 0 0 1 332.4907 1126.6953)" font-family="'Helvetica'" font-size="30">500</text>
			<text transform="matrix(1 0 0 1 555.8389 1126.6953)" font-family="'Helvetica'" font-size="30">20</text>
			<text transform="matrix(1 0 0 1 722.1016 1126.6953)" font-family="'Helvetica'" font-size="30">4,000</text>
			<text transform="matrix(1 0 0 1 988.5596 1126.6953)" font-family="'Helvetica'" font-size="30">44</text>
		</g>
		<g>
			<text transform="matrix(1 0 0 1 45.0005 1180.1846)" font-family="'Helvetica'" font-size="30">Similar C</text>
			<text transform="matrix(1 0 0 1 332.4907 1180.1846)" font-family="'Helvetica'" font-size="30">300</text>
			<text transform="matrix(1 0 0 1 555.8389 1180.1846)" font-family="'Helvetica'" font-size="30">19</text>
			<text transform="matrix(1 0 0 1 722.1016 1180.1846)" font-family="'Helvetica'" font-size="30">4,500</text>
			<text transform="matrix(1 0 0 1 988.5596 1180.1846)" font-family="'Helvetica'" font-size="30">46</text>
		</g>
	</g>
</g>
<line fill="none" stroke="#000000" stroke-width="3" stroke-miterlimit="10" x1="76.698" y1="184.32" x2="1027.642" y2="184.32"/>
</svg>
