<?xml version="1.0" encoding="UTF-8" standalone="no"?>
<svg
   xmlns:dc="http://purl.org/dc/elements/1.1/"
   xmlns:cc="http://creativecommons.org/ns#"
   xmlns:rdf="http://www.w3.org/1999/02/22-rdf-syntax-ns#"
   xmlns:svg="http://www.w3.org/2000/svg"
   xmlns="http://www.w3.org/2000/svg"
   viewBox="0 0 1440 1280"
   height="1280"
   width="1440"
   xml:space="preserve"
   id="svg2"
   version="1.1"><metadata
     id="metadata8"><rdf:RDF><cc:Work
         rdf:about=""><dc:format>image/svg+xml</dc:format><dc:type
           rdf:resource="http://purl.org/dc/dcmitype/StillImage" /></cc:Work></rdf:RDF></metadata><defs
     id="defs6" /><g
     transform="matrix(1.3333333,0,0,-1.3333333,0,1280)"
     id="g10"><text
       id="text14"
       style="font-variant:normal;font-weight:normal;font-stretch:normal;font-size:65.3105011px;font-family:Helvetica;-inkscape-font-specification:Helvetica;writing-mode:lr-tb;fill:#000000;fill-opacity:1;fill-rule:nonzero;stroke:none"
       transform="matrix(1,0,0,-1,19.8306,848.9849)"><tspan
         id="tspan12"
         y="0"
         x="0 43.562103 79.874741 94.373672 130.68631 163.34157 181.49788 217.81052 235.96684 254.12315 301.27734 323.02573 359.33838 391.99362 410.14993 446.46259 482.77521 500.93155 537.2442 555.40051 569.89941 606.21204 624.36841 671.52258 707.83521 722.33411 736.83307 773.14569 794.8941">Sales of Crestgate in Dollars</tspan></text>
<text
       id="text20"
       style="font-variant:normal;font-weight:normal;font-stretch:normal;font-size:39.18629837px;font-family:Helvetica;-inkscape-font-specification:Helvetica;writing-mode:lr-tb;fill:#0071bc;fill-opacity:1;fill-rule:nonzero;stroke:none"
       transform="matrix(1,0,0,-1,23.6729,797.6592)"><tspan
         id="tspan16"
         y="0"
         x="0 28.292509 54.429771 82.722282 93.616074 126.25826 134.95761 143.65698 152.35634 161.05569 182.84328 204.63086">USD millions</tspan><tspan
         id="tspan18"
         y="148.4377"
         x="-3.8402574 24.452251 33.151611 52.744759 72.337914 94.125496 115.91308 137.70065 148.59445 159.48824 185.6255 196.51929 218.30688 231.35591 253.14349">Discount Stores</tspan></text>
<text
       id="text24"
       style="font-variant:normal;font-weight:normal;font-stretch:normal;font-size:45.7173996px;font-family:Helvetica;-inkscape-font-specification:Helvetica;writing-mode:lr-tb;fill:#000000;fill-opacity:1;fill-rule:nonzero;stroke:none"
       transform="matrix(1,0,0,-1,480.7822,702.5933)"><tspan
         id="tspan22"
         y="0"
         x="0 25.418875 50.837749 76.256622 448.07623 473.49512 498.91397 524.33289 224.74673 250.16562 275.58447 297.63855">200920132011</tspan></text>
<text
       id="text30"
       style="font-variant:normal;font-weight:normal;font-stretch:normal;font-size:39.18629837px;font-family:Helvetica;-inkscape-font-specification:Helvetica;writing-mode:lr-tb;fill:#000000;fill-opacity:1;fill-rule:nonzero;stroke:none"
       transform="matrix(1,0,0,-1,19.8306,577.0728)"><tspan
         id="tspan26"
         y="0"
         x="0 28.292509 36.991867 56.585018 76.178169 97.965752 119.75333 141.54091 152.43471 163.32849 195.97069 217.75827 230.80731">Dizcount Mart</tspan><tspan
         id="tspan28"
         y="81.546692"
         x="0 28.292509 50.08009 58.779449 67.478806 89.266388 102.31543 113.20922 139.34648 161.13406 180.72722 202.5148">Dollar Saver</tspan></text>
<text
       id="text34"
       style="font-variant:normal;font-weight:normal;font-stretch:normal;font-size:39.18629837px;font-family:Helvetica;-inkscape-font-specification:Helvetica;writing-mode:lr-tb;fill:#000000;fill-opacity:1;fill-rule:nonzero;stroke:none"
       transform="matrix(1,0,0,-1,19.8306,413.97942)"><tspan
         id="tspan32"
         y="0"
         x="0 26.137262 45.730412 53.747929 73.34108 84.234871 121.22674 143.01433 164.80191 173.50127 195.28885 214.88199 236.66957 245.36894">AJ’s Wholesale</tspan></text>
<text
       id="text60"
       style="font-variant:normal;font-weight:normal;font-stretch:normal;font-size:39.18629837px;font-family:Helvetica;-inkscape-font-specification:Helvetica;writing-mode:lr-tb;fill:#000000;fill-opacity:1;fill-rule:nonzero;stroke:none"
       transform="matrix(1,0,0,-1,517.10475,579.03211)"><tspan
         id="tspan36"
         y="0"
         x="0 21.787582 43.575165">425</tspan><tspan
         id="tspan38"
         y="1.0188438"
         x="448.09534 469.88293 491.6705">700</tspan><tspan
         id="tspan40"
         y="0.94047117"
         x="221.3634 243.15099 264.93857">440</tspan><tspan
         id="tspan42"
         y="82.761467"
         x="0 21.787582 43.575165">425</tspan><tspan
         id="tspan44"
         y="84.172173"
         x="448.09534 469.88293 491.6705">440</tspan><tspan
         id="tspan46"
         y="83.153328"
         x="221.3634 243.15099 264.93857">100</tspan><tspan
         id="tspan48"
         y="165.17026"
         x="0 21.787582 43.575165">375</tspan><tspan
         id="tspan50"
         y="165.64049"
         x="221.3634 243.15099 264.93857">280</tspan><tspan
         id="tspan52"
         y="165.0135"
         x="448.09534 469.88293 491.6705">300</tspan><tspan
         id="tspan54"
         y="279.16321"
         x="-497.27414 -471.13687 -449.3493 -427.56171 -405.77414 -392.7251 -360.08292 -338.29532 -325.24628 -305.65314 -283.86557 -272.97177">Supermarkets</tspan><tspan
         id="tspan56"
         y="353.93066"
         x="-497.27414 -471.13687 -460.2431 -438.45551 -416.66794 -405.77414 -379.63687 -368.74307 -342.60583 -320.81824">Stop &amp; Buy</tspan><tspan
         id="tspan58"
         y="435.47736"
         x="-497.27414 -466.7872 -453.73816 -431.95059 -412.35742 -390.56985 -377.52081 -357.92767 -329.63516 -307.84756">Groceryway</tspan></text>
<text
       id="text64"
       style="font-variant:normal;font-weight:normal;font-stretch:normal;font-size:39.18629837px;font-family:Helvetica;-inkscape-font-specification:Helvetica;writing-mode:lr-tb;fill:#000000;fill-opacity:1;fill-rule:nonzero;stroke:none"
       transform="matrix(1,0,0,-1,19.8306,62.008073)"><tspan
         id="tspan62"
         y="0"
         x="0 23.942829 36.991867 58.779449 78.372597 100.16018 111.05398 137.19124 158.97882 178.57198 198.16512 219.9527">Fresh Basket</tspan></text>
<text
       id="text84"
       style="font-variant:normal;font-weight:normal;font-stretch:normal;font-size:39.18629837px;font-family:Helvetica;-inkscape-font-specification:Helvetica;writing-mode:lr-tb;fill:#4d4d4d;fill-opacity:1;fill-rule:nonzero;stroke:none"
       transform="matrix(1,0,0,-1,495.31716,225.06227)"><tspan
         id="tspan66"
         y="0"
         x="0 21.787582 43.575165 65.362747">3550</tspan><tspan
         id="tspan68"
         y="-1.0580301"
         x="448.09534 469.88293 491.6705 513.45807">3250</tspan><tspan
         id="tspan70"
         y="-0.039186299"
         x="221.3634 243.15099 264.93857 286.72617">3500</tspan><tspan
         id="tspan72"
         y="79.352257"
         x="0 21.787582 43.575165 65.362747">2500</tspan><tspan
         id="tspan74"
         y="80.880524"
         x="448.09534 469.88293 491.6705 513.45807">2500</tspan><tspan
         id="tspan76"
         y="79.352257"
         x="221.3634 243.15099 264.93857 286.72617">2450</tspan><tspan
         id="tspan78"
         y="163.21094"
         x="0 21.787582 43.575165 65.362747">1000</tspan><tspan
         id="tspan80"
         y="162.66232"
         x="243.15099 264.93857 286.72617">950</tspan><tspan
         id="tspan82"
         y="163.05418"
         x="469.88293 491.6705 513.45807">750</tspan></text>
</g></svg>