<?xml version="1.0" encoding="utf-8"?>
<!-- Generator: Adobe Illustrator 16.0.0, SVG Export Plug-In . SVG Version: 6.00 Build 0)  -->
<!DOCTYPE svg PUBLIC "-//W3C//DTD SVG 1.1//EN" "http://www.w3.org/Graphics/SVG/1.1/DTD/svg11.dtd">
<svg version="1.1" id="Layer_1" xmlns="http://www.w3.org/2000/svg" xmlns:xlink="http://www.w3.org/1999/xlink" x="0px" y="0px"
	 width="1080px" height="1080px" viewBox="0 0 1080 1080" enable-background="new 0 0 1080 1080" xml:space="preserve">
<text transform="matrix(1 0 0 1 36.9917 81.5635)" font-family="'Helvetica'" font-size="65.3105">Laraguay Assistance Spending</text>
<text transform="matrix(1 0 0 1 40.834 132.8892)" fill="#666666" font-family="'Helvetica'" font-size="39.1863">% share of total, current</text>
<g>
	<g>
		<g>
			<path fill="#81ACFC" stroke="#FFFFFF" stroke-width="5" stroke-miterlimit="10" d="M540,591.342H128.487
				c0-227.272,184.24-411.512,411.513-411.512l0,0V591.342z"/>
		</g>
	</g>
	<g>
		<g>
			<path fill="#CCDDFE" stroke="#FFFFFF" stroke-width="5" stroke-miterlimit="10" d="M540,591.342L346.807,954.687
				c-136.455-72.555-218.319-208.799-218.319-363.345H540z"/>
		</g>
	</g>
	<g>
		<g>
			<path fill="#9ABCFD" stroke="#FFFFFF" stroke-width="5" stroke-miterlimit="10" d="M540,591.342l363.345,193.193
				c-106.699,200.669-355.869,276.849-556.538,170.151l0,0L540,591.342z"/>
		</g>
	</g>
	<g>
		<g>
			<path fill="#B3CDFD" stroke="#FFFFFF" stroke-width="5" stroke-miterlimit="10" d="M540,591.342V179.83
				c227.272,0,411.513,184.24,411.513,411.512c0,72.727-14.026,128.979-48.168,193.193L540,591.342z"/>
		</g>
	</g>
</g>
<text transform="matrix(1 0 0 1 296.0601 377.2256)"><tspan x="0" y="0" fill="#FFFFFF" font-family="'Helvetica'" font-size="50">Center</tspan><tspan x="-11.133" y="60" fill="#FFFFFF" font-family="'Helvetica'" font-size="50">Upkeep</tspan><tspan x="25" y="120" fill="#FFFFFF" font-family="'Helvetica'" font-size="50">25%</tspan></text>
<text transform="matrix(1 0 0 1 695.668 495.9678)"><tspan x="0" y="0" fill="#FFFFFF" font-family="'Helvetica'" font-size="50">Other</tspan><tspan x="12.488" y="60" fill="#FFFFFF" font-family="'Helvetica'" font-size="50">33%</tspan></text>
<text transform="matrix(1 0 0 1 496.5918 821.2578)"><tspan x="0" y="0" fill="#FFFFFF" font-family="'Helvetica'" font-size="50">Caregiver</tspan><tspan x="18.054" y="60" fill="#FFFFFF" font-family="'Helvetica'" font-size="50">Salaries</tspan></text>
<text transform="matrix(1 0 0 1 239.9004 708.9043)"><tspan x="0" y="0" fill="#FFFFFF" font-family="'Helvetica'" font-size="50">Admin.</tspan><tspan x="13.904" y="60" fill="#FFFFFF" font-family="'Helvetica'" font-size="50">Costs</tspan></text>
</svg>
