<?xml version="1.0" encoding="UTF-8" standalone="no"?>
<svg
   xmlns:dc="http://purl.org/dc/elements/1.1/"
   xmlns:cc="http://creativecommons.org/ns#"
   xmlns:rdf="http://www.w3.org/1999/02/22-rdf-syntax-ns#"
   xmlns:svg="http://www.w3.org/2000/svg"
   xmlns="http://www.w3.org/2000/svg"
   viewBox="0 0 1440 1280"
   height="1280"
   width="1440"
   xml:space="preserve"
   id="svg2"
   version="1.1"><metadata
     id="metadata8"><rdf:RDF><cc:Work
         rdf:about=""><dc:format>image/svg+xml</dc:format><dc:type
           rdf:resource="http://purl.org/dc/dcmitype/StillImage" /></cc:Work></rdf:RDF></metadata><defs
     id="defs6" /><g
     transform="matrix(1.3333333,0,0,-1.3333333,0,1280)"
     id="g10"><text
       id="text14"
       style="font-variant:normal;font-weight:normal;font-stretch:normal;font-size:65.3105011px;font-family:Helvetica;-inkscape-font-specification:Helvetica;writing-mode:lr-tb;fill:#000000;fill-opacity:1;fill-rule:nonzero;stroke:none"
       transform="matrix(1,0,0,-1,29.8306,848.9849)"><tspan
         id="tspan12"
         y="0"
         x="0 43.562103 79.874741 94.373672 130.68631 163.34157 181.49788 217.81052 235.96684 254.12315 301.27734 323.02573 359.33838 391.99362 410.14993 446.46259 482.77521 500.93155 537.2442 555.40051 591.71313 624.36841 642.52472 682.51434 718.82697 733.32587 769.63855 824.04218">Sales of Crestgate by Volume</tspan></text>
<text
       id="text20"
       style="font-variant:normal;font-weight:normal;font-stretch:normal;font-size:39.18629837px;font-family:Helvetica;-inkscape-font-specification:Helvetica;writing-mode:lr-tb;fill:#0071bc;fill-opacity:1;fill-rule:nonzero;stroke:none"
       transform="matrix(1,0,0,-1,33.6729,797.6592)"><tspan
         id="tspan16"
         y="0"
         x="0 32.642189 41.341545 50.040905 58.740265 67.439621 89.227203 111.01479 130.60794 141.50172 163.28931 174.18311 185.07689 206.86447 228.65205 237.35143 248.24521 267.83835 278.73215 298.32529 320.11288 328.81226">millions of units sold</tspan><tspan
         id="tspan18"
         y="148.4377"
         x="-3.8402574 24.452251 33.151611 52.744759 72.337914 94.125496 115.91308 137.70065 148.59445 159.48824 185.6255 196.51929 218.30688 231.35591 253.14349">Discount Stores</tspan></text>
<text
       id="text24"
       style="font-variant:normal;font-weight:normal;font-stretch:normal;font-size:45.7173996px;font-family:Helvetica;-inkscape-font-specification:Helvetica;writing-mode:lr-tb;fill:#000000;fill-opacity:1;fill-rule:nonzero;stroke:none"
       transform="matrix(1,0,0,-1,490.7822,702.5933)"><tspan
         id="tspan22"
         y="0"
         x="0 25.418875 50.837749 76.256622 450.0878 475.50668 500.92554 526.34442 224.74673 250.16562 275.58447 297.63855">200920132011</tspan></text>
<text
       id="text30"
       style="font-variant:normal;font-weight:normal;font-stretch:normal;font-size:39.18629837px;font-family:Helvetica;-inkscape-font-specification:Helvetica;writing-mode:lr-tb;fill:#000000;fill-opacity:1;fill-rule:nonzero;stroke:none"
       transform="matrix(1,0,0,-1,29.8306,577.0728)"><tspan
         id="tspan26"
         y="0"
         x="0 28.292509 36.991867 56.585018 76.178169 97.965752 119.75333 141.54091 152.43471 163.32849 195.97069 217.75827 230.80731">Dizcount Mart</tspan><tspan
         id="tspan28"
         y="81.546692"
         x="0 28.292509 50.08009 58.779449 67.478806 89.266388 102.31543 113.20922 139.34648 161.13406 180.72722 202.5148">Dollar Saver</tspan></text>
<text
       id="text34"
       style="font-variant:normal;font-weight:normal;font-stretch:normal;font-size:39.18629837px;font-family:Helvetica;-inkscape-font-specification:Helvetica;writing-mode:lr-tb;fill:#000000;fill-opacity:1;fill-rule:nonzero;stroke:none"
       transform="matrix(1,0,0,-1,29.8306,413.97942)"><tspan
         id="tspan32"
         y="0"
         x="0 26.137262 45.730412 53.747929 73.34108 84.234871 121.22674 143.01433 164.80191 173.50127 195.28885 214.88199 236.66957 245.36894">AJ’s Wholesale</tspan></text>
<text
       id="text60"
       style="font-variant:normal;font-weight:normal;font-stretch:normal;font-size:39.18629837px;font-family:Helvetica;-inkscape-font-specification:Helvetica;writing-mode:lr-tb;fill:#000000;fill-opacity:1;fill-rule:nonzero;stroke:none"
       transform="matrix(1,0,0,-1,548.89233,579.03211)"><tspan
         id="tspan36"
         y="0"
         x="0 21.787582">85</tspan><tspan
         id="tspan38"
         y="1.0188438"
         x="428.30624 450.09384 471.88144">200</tspan><tspan
         id="tspan40"
         y="0.94047117"
         x="202.47562 221.3634 243.15883">110</tspan><tspan
         id="tspan42"
         y="81.311569"
         x="0 21.787582">85</tspan><tspan
         id="tspan44"
         y="82.722282"
         x="428.30624 450.09384 471.88144">125</tspan><tspan
         id="tspan46"
         y="81.703438"
         x="199.57582 221.3634 243.15099">100</tspan><tspan
         id="tspan48"
         y="165.17026"
         x="0 21.787582">75</tspan><tspan
         id="tspan50"
         y="165.64049"
         x="221.3634 243.15099">70</tspan><tspan
         id="tspan52"
         y="165.0135"
         x="450.09384 471.88144">75</tspan><tspan
         id="tspan54"
         y="279.16321"
         x="-519.06171 -492.92447 -471.13687 -449.3493 -427.56171 -414.5127 -381.87048 -360.08292 -347.03387 -327.44073 -305.65314 -294.75934">Supermarkets</tspan><tspan
         id="tspan56"
         y="353.93066"
         x="-519.06171 -492.92447 -482.03067 -460.2431 -438.45551 -427.56171 -401.42447 -390.53067 -364.3934 -342.60583">Stop &amp; Buy</tspan><tspan
         id="tspan58"
         y="435.47736"
         x="-519.06171 -488.5748 -475.52576 -453.73816 -434.14502 -412.35742 -399.30841 -379.71524 -351.42273 -329.63516">Groceryway</tspan></text>
<text
       id="text64"
       style="font-variant:normal;font-weight:normal;font-stretch:normal;font-size:39.18629837px;font-family:Helvetica;-inkscape-font-specification:Helvetica;writing-mode:lr-tb;fill:#000000;fill-opacity:1;fill-rule:nonzero;stroke:none"
       transform="matrix(1,0,0,-1,29.8306,62.008073)"><tspan
         id="tspan62"
         y="0"
         x="0 23.942829 36.991867 58.779449 78.372597 100.16018 111.05398 137.19124 158.97882 178.57198 198.16512 219.9527">Fresh Basket</tspan></text>
<text
       id="text84"
       style="font-variant:normal;font-weight:normal;font-stretch:normal;font-size:39.18629837px;font-family:Helvetica;-inkscape-font-specification:Helvetica;writing-mode:lr-tb;fill:#4d4d4d;fill-opacity:1;fill-rule:nonzero;stroke:none"
       transform="matrix(1,0,0,-1,527.10475,225.06227)"><tspan
         id="tspan66"
         y="0"
         x="0 21.787582 43.575165">710</tspan><tspan
         id="tspan68"
         y="-1.0580301"
         x="450.09384 471.88144 493.66901">650</tspan><tspan
         id="tspan70"
         y="-0.039186299"
         x="221.3634 243.15099 264.93857">700</tspan><tspan
         id="tspan72"
         y="79.352257"
         x="0 21.787582 43.575165">500</tspan><tspan
         id="tspan74"
         y="80.880524"
         x="450.09384 471.88144 493.66901">500</tspan><tspan
         id="tspan76"
         y="79.352257"
         x="221.3634 243.15099 264.93857">490</tspan><tspan
         id="tspan78"
         y="163.21094"
         x="0 21.787582 43.575165">200</tspan><tspan
         id="tspan80"
         y="162.66232"
         x="221.3634 243.15099 264.93857">190</tspan><tspan
         id="tspan82"
         y="163.05418"
         x="450.09384 471.88144 493.66901">150</tspan></text>
</g></svg>