<?xml version="1.0" encoding="utf-8"?>
<!-- Generator: Adobe Illustrator 22.1.0, SVG Export Plug-In . SVG Version: 6.00 Build 0)  -->
<svg version="1.1" id="Layer_1" xmlns="http://www.w3.org/2000/svg" xmlns:xlink="http://www.w3.org/1999/xlink" x="0px" y="0px"
	 viewBox="0 0 1080 1200" style="enable-background:new 0 0 1080 1200;" xml:space="preserve">
<style type="text/css">
	.st0{font-family:'Helvetica';}
	.st1{font-size:65px;}
	.st2{fill:#666666;}
	.st3{font-size:39.1863px;}
	.st4{font-size:30px;}
	.st5{fill:#666666;stroke:#000000;stroke-width:6;stroke-miterlimit:10;}
	.st6{fill:none;stroke:#000000;stroke-width:3;stroke-miterlimit:10;}
	.st7{fill:none;stroke:#666666;stroke-width:3;stroke-miterlimit:10;}
	.st8{fill:none;stroke:#000000;stroke-width:2;stroke-miterlimit:10;}
	.st9{fill:none;stroke:#000000;stroke-width:2;stroke-miterlimit:10;stroke-dasharray:12.0748,12.0748;}
	.st10{fill:none;stroke:#C1272D;stroke-width:4;stroke-miterlimit:10;}
</style>
<text transform="matrix(1 0 0 1 23.2847 114.9233)" class="st0 st1">e-Brush Demand Curve</text>
<text transform="matrix(1 0 0 1 24.3081 165.249)" class="st2 st0 st3">quantity demanded in millions</text>
<text transform="matrix(1 0 0 1 81.6719 233.7036)" class="st2 st0 st4">Price</text>
<path class="st5" d="M239.1,612.1"/>
<path class="st6" d="M384.5,1004.8"/>
<line class="st7" x1="110" y1="1065.2" x2="1011.1" y2="1065.2"/>
<path class="st8" d="M110.7,1051.6c0,13,0,13,0,13"/>
<path class="st8" d="M290.7,1051.6c0,13,0,13,0,13"/>
<path class="st8" d="M650.7,1051.6c0,13,0,13,0,13"/>
<path class="st8" d="M470.7,1051.6c0,13,0,13,0,13"/>
<path class="st8" d="M830.7,1051.6c0,13,0,13,0,13"/>
<path class="st8" d="M1010.7,1052.2c0,13,0,13,0,13"/>
<g>
	<line class="st7" x1="111" y1="262.7" x2="111" y2="1065.6"/>
	<path class="st8" d="M124.5,263.3c-13,0-13,0-13,0"/>
	<path class="st8" d="M124.5,343.5c-13,0-13,0-13,0"/>
	<path class="st8" d="M124.5,423.7c-13,0-13,0-13,0"/>
	<path class="st8" d="M124.5,824.7c-13,0-13,0-13,0"/>
	<path class="st8" d="M124.5,744.5c-13,0-13,0-13,0"/>
	<path class="st8" d="M124.5,664.3c-13,0-13,0-13,0"/>
	<path class="st8" d="M124.5,584.1c-13,0-13,0-13,0"/>
	<path class="st8" d="M124.5,503.9c-13,0-13,0-13,0"/>
	<path class="st8" d="M124.5,985.1c-13,0-13,0-13,0"/>
	<path class="st8" d="M124.5,904.9c-13,0-13,0-13,0"/>
	<path class="st8" d="M123.9,1065.3c-13,0-13,0-13,0"/>
</g>
<g>
	<g>
		<path class="st8" d="M290.8,1063c0-2,0-4,0-6"/>
		<path class="st9" d="M290.8,1044.9c0-583,0-730.3,0-766.8"/>
		<path class="st8" d="M290.8,272.1c0-7.7,0-5.3,0-5.3"/>
	</g>
</g>
<line class="st10" x1="111.8" y1="424.3" x2="833.6" y2="1064.3"/>
<text transform="matrix(1 0 0 1 271.437 1099.1494)" class="st0 st4">0.5</text>
<text transform="matrix(1 0 0 1 994.2344 1099.1494)" class="st0 st4">2.5</text>
<text transform="matrix(1 0 0 1 813.0352 1099.1494)" class="st0 st4">2.0</text>
<text transform="matrix(1 0 0 1 632.8359 1099.1494)" class="st0 st4">1.5</text>
<text transform="matrix(1 0 0 1 451.6362 1099.1494)" class="st0 st4">1.0</text>
<text transform="matrix(1 0 0 1 45.4741 353.0962)" class="st0 st4">$90</text>
<text transform="matrix(1 0 0 1 45.4741 994.0527)" class="st0 st4">$10</text>
<text transform="matrix(1 0 0 1 45.4741 913.9326)" class="st0 st4">$20</text>
<text transform="matrix(1 0 0 1 45.4741 833.8135)" class="st0 st4">$30</text>
<text transform="matrix(1 0 0 1 45.4741 753.6943)" class="st0 st4">$40</text>
<text transform="matrix(1 0 0 1 45.4741 673.5742)" class="st0 st4">$50</text>
<text transform="matrix(1 0 0 1 45.4741 593.4551)" class="st0 st4">$60</text>
<text transform="matrix(1 0 0 1 45.4741 513.3354)" class="st0 st4">$70</text>
<text transform="matrix(1 0 0 1 45.4741 433.2158)" class="st0 st4">$80</text>
<text transform="matrix(1 0 0 1 941.1733 997.9761)"><tspan x="0" y="0" class="st2 st0 st4">Quantity</tspan><tspan x="-17.5" y="36" class="st2 st0 st4">Demanded</tspan></text>
<text transform="matrix(1 0 0 1 325.1089 374.9761)"><tspan x="0" y="0" class="st2 st0 st4">Current</tspan><tspan x="-5.8" y="36" class="st2 st0 st4">Quantity</tspan></text>
<text transform="matrix(1 0 0 1 30.0195 274.6416)" class="st0 st4">$100</text>
</svg>
